<svg xmlns="http://www.w3.org/2000/svg" viewBox="0 0 806.95 800.4251" width="806.95" height="800.425"><defs><clipPath id="a"><path d="M335 0h118v75H335z"/></clipPath><clipPath id="b"><path d="M335.5 151.004h136v87h-136z"/></clipPath><clipPath id="c"><path d="M472.975 606h107v93.818h-107z"/></clipPath><clipPath id="d"><path d="M99.5 606h107v93.818h-107z"/></clipPath><clipPath id="e"><path d="M0 0h244.5v56.5H0z"/></clipPath><clipPath id="f"><path d="M78.547 7.889h76.444v20H78.547z"/></clipPath><clipPath id="g"><path d="M78.547 29.9h76.444v20H78.547z"/></clipPath><clipPath id="h"><path d="M331 345.76h145v54H331z"/></clipPath><clipPath id="i"><path d="M599.975 606h107v93.818h-107z"/></clipPath><clipPath id="j"><path d="M226.5 606h107v93.818h-107z"/></clipPath><clipPath id="k"><path d="M331 416.947h145v54H331z"/></clipPath></defs><g fill="none"><title>Private Google Access</title><title>Layer 1</title><title>GCP Zone</title><path fill="#eaedef" d="M0 113h806.95v687.425H0z"/><title>Page-1</title><title>Shape</title><path d="M28.808 144.03l-2.148 3.733h-5.625a1.4 1.4 0 0 1-1.215-.704l-4.55-7.933a1.401 1.401 0 0 1 0-1.392l1.732-3.018 2.137 3.713 3.222 5.6z" fill="#fbbc05"/><title>Shape</title><path d="M35.899 139.126l-4.55 7.934a1.4 1.4 0 0 1-1.214.704h-3.476l2.147-3.734 3.225-5.6-3.225-5.6h4.28l2.812 4.904c.249.43.25.961.001 1.392z" fill="#ea4335"/><title>Shape</title><path d="M33.087 132.83H22.36l-3.222 5.6-2.137-3.715 2.818-4.915a1.4 1.4 0 0 1 1.215-.704h9.1a1.4 1.4 0 0 1 1.215.704z" fill="#4285f4"/><title>Shape</title><title>Oval</title><circle cx="25.585" cy="138.429" r="2.801" fill="#fff"/><title>GCP logo</title><title>Fill-3</title><path d="M94.683 138.735c0-3.23 2.441-5.672 5.64-5.672 1.639 0 3.019.652 3.99 1.774l-.971.94c-.758-.94-1.775-1.38-3.018-1.38-2.29 0-4.216 1.668-4.216 4.338 0 2.669 1.926 4.336 4.216 4.336 1.365 0 2.517-.636 3.336-1.577l.97.97c-.955 1.138-2.486 1.942-4.306 1.942-3.2 0-5.641-2.442-5.641-5.671" fill="#757575"/><title>Fill-5</title><path fill="#757575" d="M105.722 133.306h1.395v10.858h-1.395z"/><title>Fill-7</title><path d="M114.41 140.448c0-1.698-1.182-2.684-2.426-2.684-1.243 0-2.426.986-2.426 2.684 0 1.699 1.183 2.684 2.426 2.684 1.244 0 2.427-.985 2.427-2.684m1.395 0c0 2.26-1.593 3.958-3.822 3.958s-3.821-1.699-3.821-3.958c0-2.26 1.592-3.958 3.821-3.958 2.23 0 3.822 1.699 3.822 3.958" fill="#757575"/><title>Fill-8</title><path d="M122.114 144.163v-1.03h-.06c-.41.681-1.336 1.273-2.351 1.273-1.911 0-2.836-1.29-2.836-3.124v-4.55h1.395v4.323c0 1.547.773 2.077 1.834 2.077 1.214 0 1.957-1.168 1.957-2.305v-4.094h1.395v7.43z" fill="#757575"/><title>Fill-9</title><path d="M130.696 140.448c0-1.698-1.122-2.684-2.366-2.684-1.243 0-2.365 1.016-2.365 2.684 0 1.668 1.122 2.684 2.365 2.684 1.244 0 2.366-.985 2.366-2.684m-6.126 0c0-2.275 1.652-3.958 3.533-3.958 1.183 0 2.108.591 2.532 1.274h.061l-.061-1.03v-3.428h1.395v10.857h-1.334v-1.031h-.061c-.424.682-1.35 1.274-2.532 1.274-1.88 0-3.533-1.683-3.533-3.958" fill="#757575"/><title>Fill-10</title><path d="M139.566 138.431c1.244 0 1.941-1.03 1.941-1.895 0-.864-.697-1.895-1.94-1.895h-2.336v3.79zm-3.73 5.732v-10.857h3.7c1.804 0 3.396 1.334 3.396 3.23 0 1.895-1.592 3.23-3.396 3.23h-2.305v4.397z" fill="#757575"/><title>Fill-11</title><path fill="#757575" d="M143.918 133.306h1.395v10.858h-1.395z"/><title>Fill-12</title><path d="M151.788 140.964s-.592-.485-1.775-.485c-1.47 0-2.047.788-2.047 1.47 0 .789.82 1.183 1.547 1.183 1.107 0 2.275-.956 2.275-2.168m-5.278.955c0-1.683 1.517-2.593 3.261-2.593 1 0 1.728.288 2.017.455v-.213c0-1.122-.895-1.804-1.942-1.804-.772 0-1.516.379-1.774 1.077l-1.273-.547c.257-.682 1.152-1.804 3.017-1.804 1.82 0 3.306 1.092 3.306 3.185v4.488h-1.334v-1.03h-.061c-.41.62-1.168 1.273-2.441 1.273-1.517 0-2.776-.94-2.776-2.487" fill="#757575"/><title>Fill-13</title><path d="M155.139 141.904v-3.898h-1.304v-1.273h1.304v-2.275h1.395v2.275h1.82v1.273h-1.82v3.792c0 .834.349 1.213 1 1.213.258 0 .44-.03.637-.122l.486 1.198c-.319.137-.652.198-1.122.198-1.563 0-2.396-.865-2.396-2.381" fill="#757575"/><title>Fill-14</title><path d="M164.206 133.442l-.485 1.198c-.182-.091-.379-.121-.637-.121-.698 0-1.243.41-1.243 1.274v.94h1.94v1.273h-1.94v6.157h-1.395v-6.157h-1.396v-1.273h1.396v-.986c0-1.516 1.076-2.502 2.638-2.502.47 0 .804.061 1.122.197" fill="#757575"/><title>Fill-15</title><path d="M170.408 140.448c0-1.698-1.183-2.684-2.426-2.684-1.244 0-2.426.986-2.426 2.684 0 1.699 1.182 2.684 2.426 2.684 1.243 0 2.426-.985 2.426-2.684m1.395 0c0 2.26-1.592 3.958-3.821 3.958-2.23 0-3.822-1.699-3.822-3.958 0-2.26 1.593-3.958 3.822-3.958s3.821 1.699 3.821 3.958" fill="#757575"/><title>Fill-16</title><path d="M172.925 144.163v-7.43h1.334v1.213h.061c.303-.849 1.38-1.395 2.154-1.395.454 0 .758.06 1.046.182l-.53 1.304c-.198-.076-.44-.106-.744-.106-.956 0-1.926.803-1.926 2.169v4.063z" fill="#757575"/><title>Fill-17</title><path d="M178.278 136.733h1.334v1.03h.06c.426-.712 1.411-1.273 2.29-1.273 1.198 0 1.972.546 2.35 1.425a3.023 3.023 0 0 1 2.594-1.425c1.82 0 2.654 1.29 2.654 3.124v4.55h-1.395v-4.337c0-1.547-.592-2.063-1.653-2.063-1.138 0-1.896 1.152-1.896 2.29v4.11h-1.395v-4.337c0-1.547-.591-2.063-1.653-2.063-1.137 0-1.896 1.152-1.896 2.29v4.11h-1.394z" fill="#757575"/><title>Fill-18</title><path d="M42.095 138.189c0-3.428 2.881-6.218 6.309-6.218 1.895 0 3.245.743 4.26 1.714l-1.197 1.198c-.728-.682-1.714-1.213-3.063-1.213-2.503 0-4.459 2.016-4.459 4.519 0 2.502 1.956 4.519 4.459 4.519 1.622 0 2.547-.652 3.138-1.244.486-.485.805-1.183.926-2.138h-4.064v-1.698h5.716c.061.303.091.667.091 1.061 0 1.274-.348 2.85-1.47 3.973-1.092 1.137-2.487 1.744-4.337 1.744-3.428 0-6.309-2.79-6.309-6.217" fill="#757575"/><title>Fill-19</title><path d="M58.832 142.829c-1.214 0-2.26-1.001-2.26-2.427 0-1.44 1.046-2.426 2.26-2.426 1.213 0 2.259.986 2.259 2.427 0 1.425-1.046 2.426-2.26 2.426m0-6.43c-2.214 0-4.018 1.683-4.018 4.004 0 2.304 1.804 4.003 4.019 4.003 2.213 0 4.018-1.699 4.018-4.004 0-2.32-1.805-4.003-4.018-4.003" fill="#757575"/><title>Fill-20</title><path d="M67.598 142.829c-1.213 0-2.26-1.001-2.26-2.427 0-1.44 1.047-2.426 2.26-2.426 1.213 0 2.26.986 2.26 2.427 0 1.425-1.047 2.426-2.26 2.426m0-6.43c-2.214 0-4.019 1.683-4.019 4.004 0 2.304 1.805 4.003 4.019 4.003 2.214 0 4.019-1.699 4.019-4.004 0-2.32-1.805-4.003-4.019-4.003" fill="#757575"/><title>Fill-21</title><path d="M76.341 142.829c-1.212 0-2.229-1.016-2.229-2.411 0-1.41 1.017-2.442 2.23-2.442 1.197 0 2.137 1.031 2.137 2.442 0 1.395-.94 2.41-2.138 2.41zm2.017-6.187v.652h-.06c-.395-.47-1.153-.895-2.108-.895-2.002 0-3.837 1.759-3.837 4.019 0 2.244 1.835 3.988 3.837 3.988.955 0 1.713-.425 2.107-.91h.061v.576c0 1.532-.819 2.351-2.138 2.351-1.077 0-1.744-.773-2.017-1.425l-1.532.636c.44 1.062 1.608 2.366 3.549 2.366 2.063 0 3.806-1.213 3.806-4.17v-7.188z" fill="#757575"/><title>Fill-22</title><path fill="#757575" d="M81.24 132.396h1.759v11.767H81.24z"/><title>Fill-23</title><path d="M87.684 137.946c.698 0 1.29.349 1.486.85l-3.578 1.485c-.046-1.547 1.197-2.335 2.092-2.335m.137 4.883c-.895 0-1.532-.41-1.941-1.213l5.353-2.214-.182-.455c-.334-.895-1.35-2.548-3.427-2.548-2.063 0-3.776 1.623-3.776 4.004 0 2.244 1.698 4.003 3.973 4.003 1.835 0 2.896-1.122 3.336-1.774l-1.365-.91c-.455.667-1.077 1.107-1.971 1.107" fill="#757575"/><path fill="#fff" d="M335 0h118v75H335z"/><path stroke="#dfdfdf" stroke-linecap="round" stroke-linejoin="round" stroke-width="2" clip-path="url(#a)" d="M335 0h118v75H335z"/><text transform="translate(335 30)" fill="#212121"><tspan font-family="Roboto" font-size="12" font-weight="400" x="38.439" y="11">Internet</tspan></text><path d="M399.512 18.53A5.617 5.617 0 0 0 394 14a5.622 5.622 0 0 0-4.988 3.03A4.496 4.496 0 0 0 385 21.5c0 2.483 2.017 4.5 4.5 4.5h9.75c2.07 0 3.75-1.68 3.75-3.75a3.732 3.732 0 0 0-3.488-3.72z" fill="#616161"/><title>zone external - blue</title><path d="M20.05 258.004h766.9v521.814H20.05z" stroke="#616161" stroke-linecap="round" stroke-linejoin="round" stroke-dasharray="1.0,4.0"/><text transform="translate(30.05 273.004)" fill="#757575"><tspan font-family="Roboto" font-size="10" font-weight="400" x="0" y="9">Project</tspan></text><title>zone external - green</title><path fill="#e5f5fd" d="M40.05 302.004h726.9v457.814H40.05z"/><path stroke="#fefdff" stroke-linecap="round" stroke-linejoin="round" stroke-width="2" d="M40.05 302.004h726.9v457.814H40.05z"/><text transform="translate(74.05 317.004)" fill="#757575"><tspan font-family="Roboto" font-size="10" font-weight="400" x="0" y="9">VPC Network</tspan></text><title>Fill-1</title><path d="M69.503 322.657l-3.864-6.72c-.31-.536-.871-.863-1.449-.863h-7.728c-.62 0-1.16.363-1.45.863l-3.863 6.706a1.686 1.686 0 0 0 0 1.68l3.863 6.75c.31.537.872.894 1.45.894h7.727c.62 0 1.16-.39 1.45-.89l3.864-6.72c.31-.536.288-1.2 0-1.7" fill="#4285f4"/><title>Fill-4</title><path d="M63.798 320.04l-3.071 1.476-1.47-1.469-2.4 2.411 1.599 1.599-1.6 2.934 4.975 4.977h2.358c.62 0 1.16-.39 1.45-.89l3.357-5.84z" fill="#000" fill-opacity=".07"/><title>Fill-7</title><path fill="#fff" d="M57.829 322.125h.734v2.864h-.734z"/><title>Fill-9</title><path fill="#fff" d="M62.089 321.776h.734v3.206h-.734z"/><title>Fill-10</title><path fill="#fff" d="M58.912 321.024h2.828v.734h-2.828z"/><title>Fill-11</title><path fill="#fff" d="M58.912 325.284h2.828v.734h-2.828z"/><title>Fill-12</title><path d="M56.947 319.995h2.204c.08 0 .147.066.147.147v2.204a.147.147 0 0 1-.147.147h-2.204a.147.147 0 0 1-.147-.147v-2.204c0-.08.066-.147.147-.147" fill="#fff"/><title>Fill-13</title><path d="M61.501 319.995h2.203c.082 0 .147.066.147.147v2.204a.147.147 0 0 1-.147.147h-2.203a.147.147 0 0 1-.147-.147v-2.204c0-.08.066-.147.147-.147" fill="#fff"/><g><title>Fill-14</title><path d="M56.947 324.55h2.204c.08 0 .147.065.147.146v2.204a.147.147 0 0 1-.147.146h-2.204a.147.147 0 0 1-.147-.146v-2.204c0-.081.066-.147.147-.147" fill="#fff"/></g><g><title>Fill-15</title><path d="M61.501 324.55h2.203c.082 0 .147.065.147.146v2.204a.147.147 0 0 1-.147.146h-2.203a.147.147 0 0 1-.147-.146v-2.204c0-.081.066-.147.147-.147" fill="#fff"/></g><g><path fill="#fff" d="M335.5 151.004h136v87h-136z"/><path stroke="#dfdfdf" stroke-linecap="round" stroke-linejoin="round" stroke-width="2" clip-path="url(#b)" d="M335.5 151.004h136v87h-136z"/><path fill="#dfdfdf" d="M351.5 199.004h104v1h-104z"/><text transform="translate(351.5 212.004)" fill="#757575"><tspan font-family="Roboto" font-size="10" font-weight="400" x="7.671" y="9">Public IP Addresses</tspan></text><text transform="translate(379.006 163.004)" fill="#212121"><tspan font-family="Roboto" font-size="12" font-weight="400" x="0" y="11">Google APIs</tspan> <tspan font-family="Roboto" font-size="12" font-weight="400" x="0" y="25">and Services</tspan></text><path fill="#616161" d="M353.75 183.629h15.75v2.25h-15.75zm0-3.375h14.625v2.25H353.75zm0-3.375h15.75v2.25h-15.75zm0-3.375h14.625v2.25H353.75zm-2.25-3.375h18v2.25h-18z"/></g><g><title>zone external - grey</title><path fill="#e5f2ec" d="M60 492.543h313.475v247.275H60z"/><path stroke="#fff" stroke-linecap="round" stroke-linejoin="round" stroke-width="2" d="M60 492.543h313.475v247.275H60z"/><text transform="translate(70 507.543)" fill="#757575"><tspan font-family="Roboto" font-size="10" font-weight="400" x="0" y="9">Region: us-west1</tspan></text></g><g><title>zone internal - purple</title><path fill="#ede7f7" d="M80.5 536.543h272.975v182.155H80.5z"/><path stroke="#fff" stroke-linecap="round" stroke-linejoin="round" stroke-width="2" d="M80.5 536.543h272.975v182.155H80.5z"/><text transform="translate(90.5 551.543)" fill="#757575"><tspan font-family="Roboto" font-size="10" font-weight="400" x="0" y="9">subnet-a: Private Google Access On</tspan></text></g><g><title>zone external - grey</title><path fill="#e5f2ec" d="M433.475 492.543H746.95v247.275H433.475z"/><path stroke="#fff" stroke-linecap="round" stroke-linejoin="round" stroke-width="2" d="M433.475 492.543H746.95v247.275H433.475z"/><text transform="translate(443.475 507.543)" fill="#757575"><tspan font-family="Roboto" font-size="10" font-weight="400" x="0" y="9">Region: us-east1</tspan></text></g><g><title>zone internal - purple</title><path fill="#ede7f7" d="M453.975 536.543H726.95v183.275H453.975z"/><path stroke="#fff" stroke-linecap="round" stroke-linejoin="round" stroke-width="2" d="M453.975 536.543H726.95v183.275H453.975z"/><text transform="translate(463.975 551.543)" fill="#757575"><tspan font-family="Roboto" font-size="10" font-weight="400" x="0" y="9">subnet-b: Private Google Access Off</tspan></text></g><g><title>Combo Card 1</title><path fill="#fff" d="M472.975 606h107v93.818h-107z"/><path stroke="#dfdfdf" stroke-linecap="round" stroke-linejoin="round" stroke-width="2" clip-path="url(#c)" d="M472.975 606h107v93.818h-107z"/><path fill="#dfdfdf" d="M488.975 660h72v1h-72z"/><text transform="translate(488.975 669)" fill="#757575"><tspan font-family="Roboto" font-size="10" font-weight="400" x="7.091" y="9">192.168.1.2</tspan></text><text transform="translate(525.975 626.5)" fill="#212121"><tspan font-family="Roboto" font-size="12" font-weight="400" x="0" y="11">VM B1</tspan></text><title>Compute Engine</title><title>Fill-1</title><path d="M516.641 632.714l-5.754-10.006c-.461-.8-1.297-1.286-2.158-1.286h-11.508c-.922 0-1.727.54-2.158 1.285l-5.754 9.986a2.51 2.51 0 0 0 0 2.502l5.754 10.052c.46.798 1.297 1.331 2.158 1.331h11.507c.923 0 1.728-.581 2.159-1.326l5.754-10.006a2.566 2.566 0 0 0 0-2.532" fill="#4285f4"/><title>Fill-4</title><path d="M514.99 638.117l-9.47-9.47-.679 1.47-1.476-1.476-.684 1.463-1.46-1.46-.358 1.77-1.3.223-.269 1.155-1.68.401 1.506 1.506-1.49.664 1.49 1.49-1.5.64 10.085 10.085h1.024c.922 0 1.727-.581 2.158-1.326z" fill="#000" fill-opacity=".07"/><title>Fill-7</title><path d="M504.25 632.49h-2.495a.266.266 0 0 0-.266.265v2.495c.001.147.12.266.266.266h2.495a.267.267 0 0 0 .266-.266v-2.495a.266.266 0 0 0-.266-.265" fill="#fff"/><g><title>Fill-9</title><path d="M506.09 637.091h-6.176v-6.176h6.177zm2.11-4.803a.24.24 0 0 0 .24-.238v-.388a.24.24 0 0 0-.24-.239h-1.213v-1.134a.267.267 0 0 0-.266-.266h-1.139v-1.218a.24.24 0 0 0-.238-.239h-.389a.24.24 0 0 0-.238.239v1.218h-1.282v-1.219a.24.24 0 0 0-.238-.238h-.389a.24.24 0 0 0-.238.239v1.218h-1.282v-1.219a.24.24 0 0 0-.238-.238h-.389a.24.24 0 0 0-.238.239v1.218h-1.139a.267.267 0 0 0-.266.265v1.135h-1.213a.24.24 0 0 0-.239.238v.39a.24.24 0 0 0 .239.237h1.213v1.283h-1.213a.239.239 0 0 0-.238.237v.389c0 .131.106.238.238.238h1.214v1.282h-1.214a.24.24 0 0 0-.238.238v.389c0 .131.106.238.238.238h1.214v1.135c0 .147.119.265.265.266h1.14v1.218a.24.24 0 0 0 .237.238h.389a.239.239 0 0 0 .238-.238v-1.218h1.282v1.218c0 .131.107.238.238.238h.389a.239.239 0 0 0 .238-.238v-1.218h1.282v1.218a.24.24 0 0 0 .238.238h.389a.24.24 0 0 0 .238-.238v-1.218h1.14a.267.267 0 0 0 .265-.266v-1.135h1.214a.239.239 0 0 0 .238-.238v-.388a.239.239 0 0 0-.238-.239h-1.214v-1.282h1.214a.239.239 0 0 0 .238-.238v-.388a.24.24 0 0 0-.238-.239h-1.214v-1.282z" fill="#fff"/></g></g><g><title>Combo Card 1</title><path fill="#fff" d="M99.5 606h107v93.818h-107z"/><path stroke="#dfdfdf" stroke-linecap="round" stroke-linejoin="round" stroke-width="2" clip-path="url(#d)" d="M99.5 606h107v93.818h-107z"/><path fill="#dfdfdf" d="M115.5 660h72v1h-72z"/><text transform="translate(115.5 669)" fill="#757575"><tspan font-family="Roboto" font-size="10" font-weight="400" x="9.899" y="9">10.240.0.2</tspan></text><text transform="translate(152.5 626.5)" fill="#212121"><tspan font-family="Roboto" font-size="12" font-weight="400" x="0" y="11">VM A1</tspan></text><title>Compute Engine</title><title>Fill-1</title><path d="M143.166 632.714l-5.754-10.006c-.461-.8-1.297-1.286-2.158-1.286h-11.508c-.922 0-1.727.54-2.158 1.285l-5.754 9.986a2.51 2.51 0 0 0 0 2.502l5.754 10.052c.46.798 1.297 1.331 2.158 1.331h11.508c.922 0 1.727-.581 2.158-1.326l5.754-10.006a2.566 2.566 0 0 0 0-2.532" fill="#4285f4"/><title>Fill-4</title><path d="M141.515 638.117l-9.47-9.47-.679 1.47-1.476-1.476-.684 1.463-1.46-1.46-.358 1.77-1.3.223-.269 1.155-1.68.401 1.506 1.506-1.49.664 1.49 1.49-1.5.64 10.086 10.085h1.023c.922 0 1.727-.581 2.158-1.326z" fill="#000" fill-opacity=".07"/><title>Fill-7</title><path d="M130.775 632.49h-2.495a.266.266 0 0 0-.266.265v2.495c.001.147.12.266.266.266h2.495a.267.267 0 0 0 .266-.266v-2.495a.266.266 0 0 0-.266-.265" fill="#fff"/><g><title>Fill-9</title><path d="M132.616 637.091h-6.177v-6.176h6.177zm2.11-4.803a.24.24 0 0 0 .238-.238v-.388a.24.24 0 0 0-.238-.239h-1.214v-1.134a.267.267 0 0 0-.266-.266h-1.139v-1.218a.24.24 0 0 0-.238-.239h-.389a.24.24 0 0 0-.238.239v1.218h-1.282v-1.219a.24.24 0 0 0-.238-.238h-.389a.24.24 0 0 0-.238.239v1.218h-1.282v-1.219a.24.24 0 0 0-.238-.238h-.389a.24.24 0 0 0-.238.239v1.218h-1.139a.266.266 0 0 0-.266.265v1.135h-1.214a.24.24 0 0 0-.238.238v.39a.24.24 0 0 0 .239.237h1.213v1.283h-1.214a.24.24 0 0 0-.237.237v.389c0 .131.106.238.238.238h1.214v1.282h-1.215a.24.24 0 0 0-.237.238v.389c0 .131.106.238.238.238h1.214v1.135c0 .147.119.265.265.266h1.14v1.218a.24.24 0 0 0 .237.238h.389a.239.239 0 0 0 .238-.238v-1.218h1.282v1.218c0 .131.107.238.238.238h.389a.239.239 0 0 0 .238-.238v-1.218h1.282v1.218a.24.24 0 0 0 .238.238h.389a.24.24 0 0 0 .238-.238v-1.218h1.14a.267.267 0 0 0 .265-.266v-1.135h1.214a.239.239 0 0 0 .238-.238v-.388a.239.239 0 0 0-.238-.239h-1.214v-1.282h1.214a.239.239 0 0 0 .238-.238v-.388a.24.24 0 0 0-.238-.239h-1.214v-1.282z" fill="#fff"/></g></g><g><path fill="#fff" d="M0 0h244.5v56.5H0z"/><path stroke="#dfdfdf" stroke-linecap="round" stroke-linejoin="round" stroke-width="2" clip-path="url(#e)" d="M0 0h244.5v56.5H0z"/><path clip-path="url(#f)" d="M78.547 7.889h76.445v20H78.547z"/><text transform="translate(78.547 11.389)" fill="#666"><tspan font-family="Roboto" font-size="10" font-weight="400" x="0" y="9">Traffic to Google APIs and Services</tspan></text><path clip-path="url(#g)" d="M78.547 29.9h76.445v20H78.547z"/><text transform="translate(78.547 33.4)" fill="#666"><tspan font-family="Roboto" font-size="10" font-weight="400" x="0" y="9">Traffic to the Internet</tspan></text><g><path d="M14.791 17.5h55.262a.5.5 0 0 0 0-1H14.791a.5.5 0 0 0 0 1z" fill="#0f9d58"/></g></g><g><path fill="#fff" d="M331 345.76h145v54H331z"/><path stroke="#dfdfdf" stroke-linecap="round" stroke-linejoin="round" stroke-width="2" clip-path="url(#h)" d="M331 345.76h145v54H331z"/><text transform="translate(372 365.26)" fill="#212121"><tspan font-family="Roboto" font-size="12" font-weight="400" x="0" y="11">Internet Gateway</tspan></text><path d="M363 368.76h-14c-1.1 0-2 .9-2 2v4c0 1.1.9 2 2 2h14c1.1 0 2-.9 2-2v-4c0-1.1-.9-2-2-2zm-11 5h-2v-2h2zm3.5 0h-2v-2h2zm3.5 0h-2v-2h2z" fill="#616161"/></g><g><path d="M15.7 41.2h55.262a.5.5 0 0 0 0-1H15.7a.5.5 0 0 0 0 1z" fill="#f4b400"/></g><g><path d="M388.5 417.432v-17.046a.5.5 0 1 0-1 0v17.046a.5.5 0 1 0 1 0z" fill="#f4b400"/></g><g><path d="M475.677 375.222h35.326a.5.5 0 0 0 .5-.5V45.202a.5.5 0 0 0-.5-.5h-58.51a.5.5 0 0 0 0 1h58.51l-.5-.5v329.52l.5-.5h-35.326a.5.5 0 0 0 0 1z" fill="#f4b400"/></g><g><path d="M388.698 574.377V470.62a.5.5 0 0 0-1 0v103.758a.5.5 0 1 0 1 0z" fill="#f4b400"/></g><g><path d="M293.556 607.823v-33.026l-.5.5h347.619l-.5-.5v35.407a.5.5 0 0 0 1 0v-35.407a.5.5 0 0 0-.5-.5h-347.62a.5.5 0 0 0-.5.5v33.026a.5.5 0 1 0 1 0z" fill="#f4b400"/></g><g><path d="M404 345.76V238.004a.5.5 0 1 0-1 0V345.76a.5.5 0 1 0 1 0z" fill="#0f9d58"/></g><g><path d="M404 416.947V399.76a.5.5 0 1 0-1 0v17.187a.5.5 0 0 0 1 0z" fill="#0f9d58"/></g><g><path d="M403.725 588.364V451.5a.5.5 0 1 0-1 0v136.864a.5.5 0 0 0 1 0z" fill="#0f9d58"/></g><g><path d="M268.9 588.916v18.51a.5.5 0 1 0 1 0v-18.51a.5.5 0 1 0-1 0z" fill="#0f9d58"/></g><g><path d="M153.5 606v-17.35l-.5.5h512.278l-.5-.5v17.586a.5.5 0 1 0 1 0V588.65a.5.5 0 0 0-.5-.5H153a.5.5 0 0 0-.5.5V606a.5.5 0 0 0 1 0z" fill="#0f9d58"/></g><g><title>Combo Card 1</title><path fill="#fff" d="M599.975 606h107v93.818h-107z"/><path stroke="#dfdfdf" stroke-linecap="round" stroke-linejoin="round" stroke-width="2" clip-path="url(#i)" d="M599.975 606h107v93.818h-107z"/><path fill="#dfdfdf" d="M615.975 660h72v1h-72z"/><text transform="translate(615.975 669)" fill="#757575"><tspan font-family="Roboto" font-size="10" font-weight="400" x="7.091" y="9">192.168.1.3</tspan> <tspan font-family="Roboto" font-size="10" font-weight="400" x="4.452" y="20">and Public IP</tspan></text><text transform="translate(652.975 626.5)" fill="#212121"><tspan font-family="Roboto" font-size="12" font-weight="400" x="0" y="11">VM B2</tspan></text><title>Compute Engine</title><title>Fill-1</title><path d="M643.641 632.714l-5.754-10.006c-.461-.8-1.297-1.286-2.158-1.286h-11.508c-.922 0-1.727.54-2.158 1.285l-5.754 9.986a2.51 2.51 0 0 0 0 2.502l5.754 10.052c.46.798 1.297 1.331 2.158 1.331h11.508c.922 0 1.727-.581 2.158-1.326l5.754-10.006a2.566 2.566 0 0 0 0-2.532" fill="#4285f4"/><title>Fill-4</title><path d="M641.99 638.117l-9.47-9.47-.679 1.47-1.476-1.476-.684 1.463-1.46-1.46-.358 1.77-1.3.223-.269 1.155-1.68.401 1.506 1.506-1.49.664 1.49 1.49-1.5.64 10.086 10.085h1.023c.922 0 1.727-.581 2.158-1.326z" fill="#000" fill-opacity=".07"/><title>Fill-7</title><path d="M631.25 632.49h-2.495a.266.266 0 0 0-.266.265v2.495c.001.147.12.266.266.266h2.495a.267.267 0 0 0 .266-.266v-2.495a.266.266 0 0 0-.266-.265" fill="#fff"/><g><title>Fill-9</title><path d="M633.09 637.091h-6.176v-6.176h6.177zm2.11-4.803a.24.24 0 0 0 .24-.238v-.388a.24.24 0 0 0-.24-.239h-1.213v-1.134a.267.267 0 0 0-.266-.266h-1.139v-1.218a.24.24 0 0 0-.238-.239h-.389a.24.24 0 0 0-.238.239v1.218h-1.282v-1.219a.24.24 0 0 0-.238-.238h-.389a.24.24 0 0 0-.238.239v1.218h-1.282v-1.219a.24.24 0 0 0-.238-.238h-.389a.24.24 0 0 0-.238.239v1.218h-1.139a.266.266 0 0 0-.266.265v1.135h-1.214a.24.24 0 0 0-.238.238v.39a.24.24 0 0 0 .239.237h1.213v1.283h-1.214a.24.24 0 0 0-.237.237v.389c0 .131.106.238.238.238h1.214v1.282h-1.215a.24.24 0 0 0-.237.238v.389c0 .131.106.238.238.238h1.214v1.135c0 .147.119.265.265.266h1.14v1.218a.24.24 0 0 0 .237.238h.389a.239.239 0 0 0 .238-.238v-1.218h1.282v1.218c0 .131.107.238.238.238h.389a.239.239 0 0 0 .238-.238v-1.218h1.282v1.218a.24.24 0 0 0 .238.238h.389a.24.24 0 0 0 .238-.238v-1.218h1.14a.267.267 0 0 0 .265-.266v-1.135h1.214a.239.239 0 0 0 .238-.238v-.388a.239.239 0 0 0-.238-.239h-1.214v-1.282h1.214a.239.239 0 0 0 .238-.238v-.388a.24.24 0 0 0-.238-.239h-1.214v-1.282z" fill="#fff"/></g></g><g><title>Combo Card 1</title><path fill="#fff" d="M226.5 606h107v93.818h-107z"/><path stroke="#dfdfdf" stroke-linecap="round" stroke-linejoin="round" stroke-width="2" clip-path="url(#j)" d="M226.5 606h107v93.818h-107z"/><path fill="#dfdfdf" d="M242.5 660h72v1h-72z"/><text transform="translate(242.5 669)" fill="#757575"><tspan font-family="Roboto" font-size="10" font-weight="400" x="9.899" y="9">10.240.0.3</tspan> <tspan font-family="Roboto" font-size="10" font-weight="400" x="4.452" y="20">and Public IP</tspan></text><text transform="translate(279.5 626.5)" fill="#212121"><tspan font-family="Roboto" font-size="12" font-weight="400" x="0" y="11">VM A2</tspan></text><title>Compute Engine</title><title>Fill-1</title><path d="M270.166 632.714l-5.754-10.006c-.461-.8-1.297-1.286-2.158-1.286h-11.508c-.922 0-1.727.54-2.158 1.285l-5.754 9.986a2.51 2.51 0 0 0 0 2.502l5.754 10.052c.46.798 1.297 1.331 2.158 1.331h11.508c.922 0 1.727-.581 2.158-1.326l5.754-10.006a2.566 2.566 0 0 0 0-2.532" fill="#4285f4"/><title>Fill-4</title><path d="M268.515 638.117l-9.47-9.47-.679 1.47-1.476-1.476-.684 1.463-1.46-1.46-.358 1.77-1.3.223-.269 1.155-1.68.401 1.506 1.506-1.49.664 1.49 1.49-1.5.64 10.086 10.085h1.023c.922 0 1.727-.581 2.158-1.326z" fill="#000" fill-opacity=".07"/><title>Fill-7</title><path d="M257.775 632.49h-2.495a.266.266 0 0 0-.266.265v2.495c.001.147.12.266.266.266h2.495a.267.267 0 0 0 .266-.266v-2.495a.266.266 0 0 0-.266-.265" fill="#fff"/><g><title>Fill-9</title><path d="M259.616 637.091h-6.177v-6.176h6.177zm2.11-4.803a.24.24 0 0 0 .238-.238v-.388a.24.24 0 0 0-.238-.239h-1.214v-1.134a.267.267 0 0 0-.266-.266h-1.139v-1.218a.24.24 0 0 0-.238-.239h-.389a.24.24 0 0 0-.238.239v1.218h-1.282v-1.219a.24.24 0 0 0-.238-.238h-.389a.24.24 0 0 0-.238.239v1.218h-1.282v-1.219a.24.24 0 0 0-.238-.238h-.389a.24.24 0 0 0-.238.239v1.218h-1.139a.266.266 0 0 0-.266.265v1.135h-1.213a.24.24 0 0 0-.239.238v.39a.24.24 0 0 0 .239.237h1.213v1.283h-1.213a.24.24 0 0 0-.238.237v.389c0 .131.106.238.238.238h1.214v1.282h-1.214a.24.24 0 0 0-.238.238v.389c0 .131.106.238.238.238h1.214v1.135c0 .147.119.265.265.266h1.14v1.218a.24.24 0 0 0 .237.238h.389a.239.239 0 0 0 .238-.238v-1.218h1.282v1.218c0 .131.107.238.238.238h.389a.239.239 0 0 0 .238-.238v-1.218h1.282v1.218a.24.24 0 0 0 .238.238h.389a.24.24 0 0 0 .238-.238v-1.218h1.14a.267.267 0 0 0 .265-.266v-1.135h1.214a.239.239 0 0 0 .238-.238v-.388a.239.239 0 0 0-.238-.239h-1.214v-1.282h1.214a.239.239 0 0 0 .238-.238v-.388a.24.24 0 0 0-.238-.239h-1.214v-1.282z" fill="#fff"/></g></g><g><path fill="#fff" d="M331 416.947h145v54H331z"/><path stroke="#dfdfdf" stroke-linecap="round" stroke-linejoin="round" stroke-width="2" clip-path="url(#k)" d="M331 416.947h145v54H331z"/><text transform="translate(372 436.447)" fill="#212121"><tspan font-family="Roboto" font-size="12" font-weight="400" x="0" y="11">VPC Routing</tspan></text><path d="M353.59 441.117l-5.18-5.17-1.41 1.41 5.17 5.17zm3.91-5.17l2.04 2.04-12.54 12.55 1.41 1.41 12.55-12.54 2.04 2.04v-5.5zm.33 9.41l-1.41 1.41 3.13 3.13-2.05 2.05h5.5v-5.5l-2.04 2.04-3.13-3.13z" fill="#616161"/></g></g></svg>